<svg width="100" height="100" xmlns="http://www.w3.org/2000/svg"  viewBox="0 0 300 300" fill="none">
 <g>
  <rect x="0" y="-1" id="svg_1" fill="#FFF" height="300" width="300"/>
  <path id="svg_2" fill="#009CDE" d="m192.40847,72.64549c-18.9291,-18.9291 -37.13016,-37.13016 -42.40847,-57.51535c-5.46032,20.38519 -23.47937,38.40424 -42.40847,57.51535c-28.39365,28.39365 -60.79154,60.60953 -60.79154,109.02435c0,56.96932 46.23069,103.20001 103.20001,103.20001c56.96932,0 103.20001,-46.23069 103.20001,-103.20001c0,0 0,0 0,0c0,-48.41482 -32.39789,-80.63069 -60.79154,-109.02435m-101.74392,133.04975c-6.37037,-0.18201 -29.66773,-40.40635 13.65079,-83.36085l28.75767,31.30582c0.91005,0.91005 0.91005,2.54815 0,3.4582c0,0 -0.18201,0.18201 -0.18201,0.18201c-6.9164,7.09841 -36.0381,36.22011 -39.67831,46.4127c-0.91005,2.00212 -2.00212,2.00212 -2.54815,2.00212m59.33545,52.96508c-19.65714,0 -35.49207,-15.83492 -35.49207,-35.49207c0,0 0,0 0,0c0.18201,-8.5545 3.27619,-16.92699 8.91852,-23.47937c6.37037,-7.82646 26.57355,-29.84974 26.57355,-29.84974s20.02117,22.3873 26.57355,29.84974c5.82434,6.37037 8.91852,14.92487 8.91852,23.47937c0,19.65714 -16.01693,35.49207 -35.49207,35.49207m67.88995,-57.51535c-0.72804,1.6381 -2.54815,4.55026 -4.91429,4.55026c-4.18624,0.18201 -4.55026,-2.00212 -7.64445,-6.55238c-6.73439,-10.01058 -65.88784,-71.89419 -76.99048,-83.72487c-9.64656,-10.55661 -1.45608,-17.83704 2.54815,-21.84127c4.91429,-4.91429 19.11111,-19.11111 19.11111,-19.11111s42.40847,40.22434 59.88149,67.52593s11.64868,51.32699 8.00847,59.15344"/>
 </g>
</svg>